<svg xmlns="http://www.w3.org/2000/svg" viewBox="0 0 800 600" fill="none">
  <defs>
    <linearGradient id="bg-boxing-4" x1="0%" y1="0%" x2="100%" y2="100%">
      <stop offset="0%" stop-color="#fef2f2"/>
      <stop offset="100%" stop-color="#fef2f2" stop-opacity="0.5"/>
    </linearGradient>
    <linearGradient id="accent-boxing-4" x1="0%" y1="0%" x2="100%" y2="100%">
      <stop offset="0%" stop-color="#7f1d1d"/>
      <stop offset="100%" stop-color="#991b1b"/>
    </linearGradient>
  </defs>
  <rect width="800" height="600" fill="url(#bg-boxing-4)"/>
  
      <rect x="150" y="80" width="500" height="440" rx="8" fill="#b91c1c" opacity="0.12"/>
      <line x1="150" y1="300" x2="650" y2="300" stroke="#dc2626" stroke-width="1.5" opacity="0.2"/>
      <line x1="400" y1="80" x2="400" y2="520" stroke="#dc2626" stroke-width="1.5" opacity="0.2"/>
      <rect x="150" y="200" width="80" height="200" fill="none" stroke="#dc2626" stroke-width="1.5" opacity="0.2"/>
      <rect x="570" y="200" width="80" height="200" fill="none" stroke="#dc2626" stroke-width="1.5" opacity="0.2"/>
  
      <circle cx="250" cy="220" r="11" fill="#ef4444"/>
      <circle cx="320" cy="380" r="11" fill="#ef4444"/>
      <circle cx="500" cy="250" r="11" fill="#ef4444"/>
      <circle cx="550" cy="400" r="11" fill="#f87171"/>
      <circle cx="480" cy="180" r="11" fill="#f87171"/>
      <circle cx="600" cy="300" r="11" fill="#f87171"/>
  
      <rect x="160" y="530" width="20" height="10" rx="2" fill="#dc2626" opacity="0.4"/>
      <rect x="220" y="530" width="20" height="10" rx="2" fill="#dc2626" opacity="0.4"/>
      <rect x="560" y="530" width="20" height="10" rx="2" fill="#dc2626" opacity="0.4"/>
      <rect x="620" y="530" width="20" height="10" rx="2" fill="#dc2626" opacity="0.4"/>
  <text x="400" y="575" text-anchor="middle" font-family="system-ui, sans-serif" font-size="14" font-weight="600" fill="#7f1d1d" opacity="0.25">Boxing Academy</text>
</svg>