<svg xmlns="http://www.w3.org/2000/svg" viewBox="0 0 800 600" fill="none">
  <defs>
    <linearGradient id="bg-chess-7" x1="0%" y1="0%" x2="100%" y2="100%">
      <stop offset="0%" stop-color="#f3f4f6"/>
      <stop offset="100%" stop-color="#f3f4f6" stop-opacity="0.5"/>
    </linearGradient>
    <linearGradient id="accent-chess-7" x1="0%" y1="0%" x2="100%" y2="100%">
      <stop offset="0%" stop-color="#111827"/>
      <stop offset="100%" stop-color="#1f2937"/>
    </linearGradient>
  </defs>
  <rect width="800" height="600" fill="url(#bg-chess-7)"/>
  
      <rect x="50" y="50" width="700" height="500" rx="10" fill="#374151" opacity="0.1"/>
      <rect x="70" y="200" width="100" height="200" fill="none" stroke="#4b5563" stroke-width="2" opacity="0.2"/>
      <rect x="630" y="200" width="100" height="200" fill="none" stroke="#4b5563" stroke-width="2" opacity="0.2"/>
  
      <circle cx="250" cy="280" r="13" fill="#6b7280"/>
      <line x1="250" y1="293" x2="250" y2="330" stroke="#6b7280" stroke-width="3"/>
      <circle cx="400" cy="250" r="13" fill="#6b7280"/>
      <line x1="400" y1="263" x2="400" y2="300" stroke="#6b7280" stroke-width="3"/>
      <circle cx="550" cy="300" r="13" fill="#9ca3af"/>
      <line x1="550" y1="313" x2="550" y2="350" stroke="#9ca3af" stroke-width="3"/>
  
      <rect x="120" y="420" width="30" height="20" rx="4" fill="#4b5563" opacity="0.3"/>
      <rect x="170" y="430" width="25" height="15" rx="3" fill="#4b5563" opacity="0.25"/>
      <rect x="610" y="420" width="30" height="20" rx="4" fill="#4b5563" opacity="0.3"/>
      <rect x="660" y="430" width="25" height="15" rx="3" fill="#4b5563" opacity="0.25"/>
  <text x="400" y="575" text-anchor="middle" font-family="system-ui, sans-serif" font-size="14" font-weight="600" fill="#111827" opacity="0.25">Chess Academy</text>
</svg>