<svg xmlns="http://www.w3.org/2000/svg" viewBox="0 0 800 600" fill="none">
  <defs>
    <linearGradient id="bg-hockey-7" x1="0%" y1="0%" x2="100%" y2="100%">
      <stop offset="0%" stop-color="#dcfce7"/>
      <stop offset="100%" stop-color="#dcfce7" stop-opacity="0.5"/>
    </linearGradient>
    <linearGradient id="accent-hockey-7" x1="0%" y1="0%" x2="100%" y2="100%">
      <stop offset="0%" stop-color="#14532d"/>
      <stop offset="100%" stop-color="#166534"/>
    </linearGradient>
  </defs>
  <rect width="800" height="600" fill="url(#bg-hockey-7)"/>
  
      <rect x="50" y="50" width="700" height="500" rx="10" fill="#15803d" opacity="0.1"/>
      <rect x="70" y="200" width="100" height="200" fill="none" stroke="#16a34a" stroke-width="2" opacity="0.2"/>
      <rect x="630" y="200" width="100" height="200" fill="none" stroke="#16a34a" stroke-width="2" opacity="0.2"/>
  
      <circle cx="250" cy="280" r="13" fill="#22c55e"/>
      <line x1="250" y1="293" x2="250" y2="330" stroke="#22c55e" stroke-width="3"/>
      <circle cx="400" cy="250" r="13" fill="#22c55e"/>
      <line x1="400" y1="263" x2="400" y2="300" stroke="#22c55e" stroke-width="3"/>
      <circle cx="550" cy="300" r="13" fill="#4ade80"/>
      <line x1="550" y1="313" x2="550" y2="350" stroke="#4ade80" stroke-width="3"/>
  
      <rect x="120" y="420" width="30" height="20" rx="4" fill="#16a34a" opacity="0.3"/>
      <rect x="170" y="430" width="25" height="15" rx="3" fill="#16a34a" opacity="0.25"/>
      <rect x="610" y="420" width="30" height="20" rx="4" fill="#16a34a" opacity="0.3"/>
      <rect x="660" y="430" width="25" height="15" rx="3" fill="#16a34a" opacity="0.25"/>
  <text x="400" y="575" text-anchor="middle" font-family="system-ui, sans-serif" font-size="14" font-weight="600" fill="#14532d" opacity="0.25">Hockey Academy</text>
</svg>