<svg xmlns="http://www.w3.org/2000/svg" viewBox="0 0 800 600" fill="none">
  <defs>
    <linearGradient id="bg-hockey-2" x1="0%" y1="0%" x2="100%" y2="100%">
      <stop offset="0%" stop-color="#dcfce7"/>
      <stop offset="100%" stop-color="#dcfce7" stop-opacity="0.5"/>
    </linearGradient>
    <linearGradient id="accent-hockey-2" x1="0%" y1="0%" x2="100%" y2="100%">
      <stop offset="0%" stop-color="#14532d"/>
      <stop offset="100%" stop-color="#166534"/>
    </linearGradient>
  </defs>
  <rect width="800" height="600" fill="url(#bg-hockey-2)"/>
  
      <rect x="0" y="350" width="800" height="250" fill="#166534" opacity="0.1"/>
      <line x1="0" y1="350" x2="800" y2="350" stroke="#16a34a" stroke-width="2" opacity="0.3"/>
      <rect x="0" y="0" width="800" height="350" fill="#f0f4f0" opacity="0.3"/>
  
      <circle cx="200" cy="280" r="16" fill="#22c55e"/>
      <line x1="200" y1="296" x2="200" y2="340" stroke="#22c55e" stroke-width="4"/>
      <line x1="200" y1="340" x2="180" y2="350" stroke="#22c55e" stroke-width="3"/>
      <line x1="200" y1="340" x2="220" y2="350" stroke="#22c55e" stroke-width="3"/>
      <line x1="200" y1="310" x2="175" y2="300" stroke="#22c55e" stroke-width="2.5"/>
      <line x1="200" y1="310" x2="230" y2="295" stroke="#22c55e" stroke-width="2.5"/>
      <circle cx="550" cy="260" r="16" fill="#4ade80"/>
      <line x1="550" y1="276" x2="550" y2="320" stroke="#4ade80" stroke-width="4"/>
      <line x1="550" y1="320" x2="530" y2="340" stroke="#4ade80" stroke-width="3"/>
      <line x1="550" y1="320" x2="570" y2="340" stroke="#4ade80" stroke-width="3"/>
  
      <ellipse cx="375" cy="300" rx="10" ry="6" fill="#16a34a" opacity="0.6"/>
  <text x="400" y="575" text-anchor="middle" font-family="system-ui, sans-serif" font-size="14" font-weight="600" fill="#14532d" opacity="0.25">Hockey Academy</text>
</svg>